<?xml version="1.0" encoding="UTF-8"?>
<!--<svg width="1311px" height="242px" viewBox="0 0 1311 242" version="1.1" xmlns="http://www.w3.org/2000/svg" xmlns:xlink="http://www.w3.org/1999/xlink">-->
<svg id="pchain_logo" data-name="pchain_logo" xmlns="http://www.w3.org/2000/svg" viewBox="0 0 357.41 265.29"  xmlns:xlink="http://www.w3.org/1999/xlink">
  <defs><style>.cls-1{fill:#2b6db5;}</style></defs>
  <title>metamask-logo-horizontal-beta</title>
  <desc>Created with Sketch.</desc>
  <g id="Group" stroke-linecap="round" stroke-linejoin="round">
      <path class="cls-1" d="M295.7,215.06v31.2h-9V192.87L326,224.29V192.87h9v53.39Z"/>
      <path class="cls-1" d="M134.72,192.85h9.05v22.67h25.57V192.86h9c0,.78.11,1.54.11,2.3,0,16.35,0,32.71,0,49.06,0,2-.57,2.59-2.49,2.45-2.09-.16-4.21,0-6.56,0V225.54c-.79-.08-1.33-.2-1.87-.2-7.26,0-14.52,0-21.78,0-1.6,0-2,.5-2,2.06.08,5.78,0,11.56.06,17.34,0,1.44-.39,2-1.9,2-2.31-.1-4.63,0-7.21,0v-8.36c0-3.67-.06-7.33,0-11a3.44,3.44,0,0,0-1.5-3.21c-1.48-1.06-2.84-2.29-4.42-3.58,1.54-1.24,2.89-2.45,4.36-3.48a3.37,3.37,0,0,0,1.56-3.16c-.08-6.21,0-12.41,0-18.61Z"/>
      <path class="cls-1" d="M36.91,246.67H28.17c0-4.89-.16-9.67.06-14.44.12-2.57-.5-4.46-2.69-5.88a29.7,29.7,0,0,1-2.89-2.47c1.42-1.26,2.65-2.49,4-3.53a3.78,3.78,0,0,0,1.53-3.44c-.07-7,0-14.1,0-21.15v-2.51c.7-.07,1.3-.19,1.9-.19,5.85,0,11.7,0,17.55.07a26.16,26.16,0,0,1,5.44.63c8.58,2,13.13,8.09,12.82,17.09-.36,10.75-7,17.41-17.75,17.76-3.64.12-7.29,0-11.22,0v18Zm.1-27.78c4.53,0,9,.26,13.34-.08,3.94-.31,6.24-3.39,6.44-7.63s-1.72-7.61-5.53-8c-4.68-.5-9.46-.12-14.25-.12Z"/>
      <path class="cls-1" d="M114.19,232.65l7,6.73c-7.84,8.31-24.12,10.72-35.65.65a26.94,26.94,0,0,1-2.43-37.94c9.61-10.84,26.76-12.16,36.94-2.93-2.28,2.21-4.56,4.44-6.92,6.74-8.82-4.83-17.26-3.76-22.81,3.13a16.81,16.81,0,0,0,.3,21.58C96.65,237.56,104.71,238.21,114.19,232.65Z"/>
      <path class="cls-1" d="M248,246.46c-3.11,0-5.72.08-8.31-.06a2.69,2.69,0,0,1-1.81-1.28c-1.37-2.46-2.62-5-3.81-7.53a2.46,2.46,0,0,0-2.58-1.63q-12.36.09-24.72,0a2.43,2.43,0,0,0-2.59,1.61c-1.16,2.56-2.44,5.07-3.77,7.55a2.53,2.53,0,0,1-1.63,1.27c-2.66.14-5.34.06-8.48.06,9.58-18.06,19-35.85,28.66-54.06Zm-29-38-10.44,20h20.82C225.9,221.83,222.55,215.35,219,208.51Z"/><path class="cls-1" d="M268.53,246.26h-8.85V192.77h8.85Z"/><path class="cls-1" d="M144.36,31.72c1.52-.32,3-.65,4.57-.95,1.89-.39,3.8-.75,5.7-1.11.9-.18,1.81-.36,2.72-.49,2.31-.34,4.63-.65,6.94-1,3.72-.51,7.43-1.11,11.16-1.52,3.52-.39,7.05-.7,10.59-.85,5.59-.22,11.19-.47,16.78-.35,5.89.13,11.77.56,17.64,1.08a110.86,110.86,0,0,1,12.85,1.76c5.11,1.06,10.15,2.45,15.15,3.94a81.35,81.35,0,0,1,17,7.54,76,76,0,0,1,19.36,15.36,99.63,99.63,0,0,1,6.4,8.2,9.71,9.71,0,0,1,1.38,3.46,64.7,64.7,0,0,1,1.22,19.72,43.92,43.92,0,0,1-2.95,12.26A54.27,54.27,0,0,1,284.35,111a62.46,62.46,0,0,1-10.55,11.3,85.72,85.72,0,0,1-20,12.65c-4.56,2.06-9.24,3.89-13.93,5.63-3.35,1.24-6.8,2.24-10.24,3.21-2.53.71-5.12,1.19-7.68,1.77s-4.86,1.11-7.31,1.6c-1.15.24-2.34.3-3.51.48-1.35.22-2.7.5-4.06.72-1.06.18-2.13.35-3.21.46-1.7.17-3.41.28-5.11.45-2.36.23-4.71.55-7.08.73-1.91.14-3.84.15-5.75.18-6.82.11-13.64.25-20.46.27-2.61,0-5.22-.21-7.83-.4-3.16-.23-6.32-.48-9.47-.83-2.61-.29-5.21-.75-7.81-1.11-1.37-.19-2.75-.29-4.11-.49-1.17-.17-2.32-.44-3.47-.66l-2.71-.52c-2.45-.46-4.92-.85-7.35-1.39-2.62-.57-5.21-1.28-7.82-1.93a50,50,0,0,1-5-1.42,9.57,9.57,0,0,1,1.39-.3c2.53-.16,5.07-.26,7.6-.45,2.83-.21,5.65-.49,8.48-.74,1.67-.15,3.35-.32,5-.45,2.11-.16,4.23-.24,6.33-.46,3.08-.32,6.15-.75,9.23-1.11,1.81-.22,3.62-.35,5.42-.57,1.63-.21,3.25-.5,4.87-.74,1.07-.16,2.14-.32,3.22-.45,2.31-.3,4.63-.53,6.93-.89,2-.3,3.92-.76,5.88-1.12,1.81-.32,3.64-.55,5.44-.9,1.61-.31,3.19-.76,4.8-1.09s3.52-.78,5.3-1c2.36-.25,4.77-.13,7.1-.5,3.94-.64,7.86-1.43,11.75-2.34a46.63,46.63,0,0,0,14.32-6,65.47,65.47,0,0,0,7.58-5.69,36.4,36.4,0,0,0,10.11-14.57,29.42,29.42,0,0,0,2.25-9.91,56.37,56.37,0,0,0-.1-8.12,35.24,35.24,0,0,0-4.64-13.62c-3.22-5.56-7.82-9.77-12.92-13.55a106.41,106.41,0,0,0-25.11-13.67c-4.7-1.82-9.53-3.33-14.36-4.81-3.58-1.1-7.23-2-10.89-2.84-2.46-.57-5-.9-7.47-1.33-2.16-.38-4.32-.78-6.49-1.13-1.1-.18-2.21-.33-3.32-.42-2.14-.19-4.28-.31-6.41-.49s-4.53-.41-6.8-.61Z"/><path class="cls-1" d="M232.9,108.33c-.78-5.25-3.81-8.81-7.67-11.79-4.33-3.34-9.35-5.3-14.49-7a112.4,112.4,0,0,0-17.28-4c-3.75-.6-7.54-1-11.32-1.4-11.9-1.4-23.86-1.36-35.81-1.13-6,.12-11.89.65-17.83,1.12-3.79.31-7.58.72-11.33,1.32-4,.65-8,1.54-12,2.41a61.92,61.92,0,0,0-12.56,4.24,30.47,30.47,0,0,0-11.29,8.24,19.08,19.08,0,0,0-3.78,7.55,23.76,23.76,0,0,0-.28,8.36,41.57,41.57,0,0,0,1.13,5,3.58,3.58,0,0,1-.57-.5,58.85,58.85,0,0,1-8-15,68,68,0,0,1-1.81-7.35,33.91,33.91,0,0,1-.27-10.87,34.56,34.56,0,0,1,2.95-10.39A57.64,57.64,0,0,1,84.28,58.83,79.49,79.49,0,0,1,102.8,45.48c4.3-2.18,8.87-3.84,13.38-5.6,3.09-1.2,6.27-2.18,9.43-3.22a9.12,9.12,0,0,1,2.41-.48c4.43-.18,8.86-.37,13.29-.41,2.58,0,5.16.2,7.73.39,2.92.22,5.84.48,8.75.82s5.75.69,8.58,1.26c5.52,1.11,11,2.25,16.52,3.62A121.3,121.3,0,0,1,213.28,54a96.67,96.67,0,0,1,13.34,9.11,33.92,33.92,0,0,1,11.72,18.1,30.14,30.14,0,0,1,.84,10.44,33.16,33.16,0,0,1-4.65,14.18C234,106.65,233.44,107.48,232.9,108.33Z"/><path class="cls-1" d="M121.33,148.84l1.87.41,5.28,1.09c.83.18,1.66.37,2.5.49,2.14.31,4.29.57,6.43.88,2.44.36,4.87.77,7.3,1.12,1.34.2,2.69.35,4,.47,2,.19,4,.38,6,.5,4.16.25,8.31.55,12.48.67a117.15,117.15,0,0,0,17.27-.22c.36,0,.72,0,1.09,0,3.3-.15,6.61-.2,9.9-.47,3.71-.32,7.41-.8,11.1-1.28q4-.51,7.88-1.23c2.41-.44,4.8-1,7.2-1.54,2.57-.56,5.16-1,7.69-1.75,3.51-1,7-2,10.46-3.22,5-1.83,10-3.76,14.92-5.9a87.1,87.1,0,0,0,17.64-10.38,74.91,74.91,0,0,0,13.23-12.68,51.27,51.27,0,0,0,8.64-14.88,83.74,83.74,0,0,0,2.84-9.64A44.12,44.12,0,0,0,298,79.72a1.37,1.37,0,0,1,.16-.79c.38,1.45.79,2.89,1.13,4.35.4,1.73.75,3.47,1.09,5.22a29.8,29.8,0,0,1,.5,3.12c.26,3,.44,5.93.67,8.9a64.63,64.63,0,0,1-.69,13.76A51.8,51.8,0,0,1,294.39,134a55,55,0,0,1-11.3,13,75.72,75.72,0,0,1-16.86,11.11,86.66,86.66,0,0,1-14.39,5.65c-2.91.82-5.82,1.67-8.75,2.38-1.78.43-3.62.65-5.43.93-2.5.4-5,.77-7.5,1.15l-.39,0c-5.29.21-10.57.53-15.86.6-4.86.07-9.74,0-14.59-.23-3.66-.17-7.31-.69-11-1.08-2.55-.28-5.11-.55-7.65-.94-2.8-.43-5.58-1-8.37-1.5-1.68-.32-3.36-.64-5-1s-3.2-.7-4.79-1.08q-2.77-.65-5.54-1.35c-1.78-.46-3.56-.94-5.32-1.44-2.21-.63-4.42-1.25-6.61-2q-3.69-1.19-7.34-2.52c-2.68-1-5.34-2-8-3.12-2.82-1.15-5.62-2.37-8.43-3.56Z"/><path class="cls-1" d="M205.7,125.13c.58-1.4,1.08-2.73,1.68-4,.73-1.54.16-3-.29-4.41-1.05-3.28-3.76-4.92-6.6-6.34a42.85,42.85,0,0,0-9.78-3.36c-3.05-.69-6.09-1.44-9.17-2-2.49-.45-5-.65-7.56-.92-3-.32-6-.62-9-.87-3.3-.28-6.6-.63-9.9-.7-10.66-.2-21.32-.42-32-.36-4.75,0-9.5.62-14.23,1.09-3.16.31-6.31.73-9.43,1.29C94,105.5,88.67,106.84,84,110c-1,.68-1.91,1.51-3,2.4,0-.43,0-.76,0-1.09.53-5.69,3.63-9.74,8.23-12.79a45,45,0,0,1,14.14-6.09c4.87-1.2,9.77-2.3,14.71-3.13,4.27-.71,8.61-1,12.92-1.45,8.07-.87,16.19-1,24.3-1.08,5.92,0,11.84.37,17.76.62,2.15.09,4.3.23,6.44.47,4.47.49,8.94,1,13.39,1.64,3.78.58,7.56,1.26,11.27,2.19,6.17,1.53,12.2,3.51,17.53,7.13a15.9,15.9,0,0,1,6.2,6.92,11.15,11.15,0,0,1,.81,6.34c-.38,2.22-2.08,3-3.43,4.1a45.87,45.87,0,0,1-13.49,7.31c-1.78.65-3.63,1.12-5.45,1.65A1.67,1.67,0,0,1,205.7,125.13Z"/><path class="cls-1" d="M76.55,60.84c-1.76,2.39-3.69,4.86-5.45,7.44A47.14,47.14,0,0,0,65.6,79.5a40.74,40.74,0,0,0-2,16.77,49.07,49.07,0,0,0,1.6,7.91,47.2,47.2,0,0,0,4.51,11.11,69.84,69.84,0,0,0,11.38,15.29c1.29,1.33,2.58,2.65,3.83,4.13a5.7,5.7,0,0,1-.92-.26,24.52,24.52,0,0,1-7-5.17,111.33,111.33,0,0,1-7.67-8.3,102.33,102.33,0,0,1-6.89-9.42,53.63,53.63,0,0,1-5.7-11.81,16.38,16.38,0,0,1-.64-7.52,37.4,37.4,0,0,1,4.55-13.38A57.16,57.16,0,0,1,74,63L76.24,61A2.16,2.16,0,0,1,76.55,60.84Z"/>
      <path class="cls-1" d="M71.42,129.69a41.53,41.53,0,0,1-9.92-12Z"/>
  </g>


</svg>